<svg xmlns="http://www.w3.org/2000/svg" viewBox="0 0 250 250" height="25">
    <g id="Layer_2" data-name="Layer 2">
        <g id="Layer_1-2" data-name="Layer 1">
            <rect fill="#314760" width="250" height="250" rx="15" ry="15"/>
            <path fill="#FFFFFF" d="M108.06,160.71a2.86,2.86,0,0,0,2.31-1.62l14.41-29.54a2.86,2.86,0,0,0-.15-2.81L107.22,100a2.49,2.49,0,0,0-2.46-1.2l-31.82,2.76a2.86,2.86,0,0,0-2.31,1.62L56.22,132.68a2.86,2.86,0,0,0,.15,2.81l17.41,26.78a2.49,2.49,0,0,0,2.46,1.2Z"/>
            <path fill="#FFFFFF" d="M132,130.34A2.89,2.89,0,0,0,129.7,132l-14.41,29.54a2.91,2.91,0,0,0,.15,2.82l17.42,26.78a2.48,2.48,0,0,0,2.46,1.2l31.82-2.76a2.88,2.88,0,0,0,2.31-1.62l14.41-29.54a2.86,2.86,0,0,0-.15-2.81L166.3,128.78a2.5,2.5,0,0,0-2.46-1.2Z"/>
            <path fill="#FFFFFF" d="M158.31,63.94,126.49,66.7a2.87,2.87,0,0,0-2.31,1.61L111.57,94.16a2.88,2.88,0,0,0,.15,2.82l17.41,26.77a2.47,2.47,0,0,0,2.46,1.2l31.83-2.76a2.89,2.89,0,0,0,2.31-1.61l12.6-25.85a2.88,2.88,0,0,0-.15-2.82L160.77,65.14A4.61,4.61,0,0,0,158.31,63.94Z"/>
        </g>
    </g>
</svg>
