<svg version="1.1" xmlns="http://www.w3.org/2000/svg" xmlns:xlink="http://www.w3.org/1999/xlink" x="0px" y="0px" width="16px" height="16px" viewBox="0 0 16 16" enable-background="new 0 0 16 16" xml:space="preserve"><g transform="translate(0, 0)"><path fill="#fff" d="M8,2c1.1,0,2,0.9,2,2v1c0,1.1-0.9,2-2,2S6,6.1,6,5V4C6,2.9,6.9,2,8,2 M8,0C5.8,0,4,1.8,4,4v1 c0,2.2,1.8,4,4,4s4-1.8,4-4V4C12,1.8,10.2,0,8,0L8,0z"></path> <path data-color="color-2" fill="#fff" d="M9,12c1.5,0,2.8,0.8,3.5,2l-8.9,0c0.7-1.2,2-2,3.5-2H9 M9,10H7c-3.3,0-6,2.7-6,6v0h14v0 C15,12.7,12.3,10,9,10L9,10z"></path></g></svg>