<svg xmlns="http://www.w3.org/2000/svg" height="48px" viewBox="0 0 212.11 212.32"><defs><style>.cls-1{fill:#fff;}</style></defs><title>Asset 3</title><g id="Layer_2" data-name="Layer 2"><g id="Layer_1-2" data-name="Layer 1"><path class="cls-1" d="M.7,115.82l28.13,44.92a4.13,4.13,0,0,0,4,2.06l52.87-3.68a4.77,4.77,0,0,0,3.88-2.61l24.74-48.6a4.77,4.77,0,0,0-.17-4.68L86.08,58.32a4.13,4.13,0,0,0-4-2.06L29.16,59.93a4.77,4.77,0,0,0-3.88,2.61L.53,111.15A4.77,4.77,0,0,0,.7,115.82Z"/><path class="cls-1" d="M211.58,157.4a4.77,4.77,0,0,0-.17-4.68l-28.13-44.92a4.13,4.13,0,0,0-4-2.06l-52.87,3.68a4.77,4.77,0,0,0-3.88,2.61l-24.74,48.6a4.77,4.77,0,0,0,.17,4.68L126,210.23a4.13,4.13,0,0,0,4,2.06L183,208.62a4.77,4.77,0,0,0,3.88-2.61Z"/><path class="cls-1" d="M119,3.68a4.77,4.77,0,0,0-3.88,2.61L93.47,48.82a4.77,4.77,0,0,0,.17,4.68l28.13,44.92a4.13,4.13,0,0,0,4,2.06l52.87-3.68a4.77,4.77,0,0,0,3.88-2.61l21.65-42.52A4.77,4.77,0,0,0,204,47L175.92,2.06a7.75,7.75,0,0,0-4-2.06Z"/></g></g></svg>
