<svg xmlns="http://www.w3.org/2000/svg" viewBox="0 0 247.22 75.45" height="35px"><defs><style>.cls-1{fill:#fff;}</style></defs><title>Asset 6</title><g id="Layer_2" data-name="Layer 2"><g id="Layer_1-2" data-name="Layer 1"><path class="cls-1" d="M49.37,27.83a.9.9,0,0,1,.91-.86h1.2l20,21.22h0V28.36a.91.91,0,0,1,.91-.91h4.42a.94.94,0,0,1,.91.91V60.67a.9.9,0,0,1-.91.86H75.68l-20.07-22h0V60.14a.91.91,0,0,1-.91.91H50.28a.94.94,0,0,1-.91-.91Z"/><path class="cls-1" d="M90.07,48.91a12.58,12.58,0,0,1,3.51.52c0-2.44-.72-3.31-2.5-3.31a23.52,23.52,0,0,0-5.38.72c-.67.19-1-.24-1.1-.86l-.43-2.5a.94.94,0,0,1,.67-1.2,26,26,0,0,1,6.53-.91c6,0,7.39,3.12,7.39,8.35V60.14a.94.94,0,0,1-.91.91H96.12c-.33,0-.57-.14-.81-.67l-.58-1.3a8.24,8.24,0,0,1-5.86,2.45C85,61.53,82.39,59,82.39,55,82.39,51.55,85.18,48.91,90.07,48.91Zm.1,8.54a4.46,4.46,0,0,0,3.31-1.87V52.94a7.51,7.51,0,0,0-2.69-.58c-1.87,0-3.12,1.06-3.12,2.59A2.39,2.39,0,0,0,90.17,57.45Z"/><path class="cls-1" d="M105.29,46.89h-1.63a.91.91,0,0,1-.87-.91V42.76a.87.87,0,0,1,.87-.91h1.63V36.52a.94.94,0,0,1,.91-.91l3.94,0a.9.9,0,0,1,.86.91v5.38h4.22a.89.89,0,0,1,.92.91V46a.92.92,0,0,1-.92.91H111v7.68c0,1.34.72,1.54,1.49,1.54a7.84,7.84,0,0,0,2.35-.53.75.75,0,0,1,1.06.53l1,3a.87.87,0,0,1-.53,1.15,17.89,17.89,0,0,1-5.71,1.25c-3.7,0-5.33-2.3-5.33-6.19Z"/><path class="cls-1" d="M120.41,31.72a3.28,3.28,0,0,1,3.26-3.31,3.31,3.31,0,1,1,0,6.62A3.28,3.28,0,0,1,120.41,31.72Zm.43,11a.91.91,0,0,1,.91-.91h4a.91.91,0,0,1,.91.91V60.14a.94.94,0,0,1-.91.91h-4a.94.94,0,0,1-.91-.91Z"/><path class="cls-1" d="M129.86,43c-.28-.62,0-1.15.68-1.15h4.17a.9.9,0,0,1,.87.53l3.88,8.93h.1l4.13-8.93c.24-.48.62-.53,1.15-.53h3.74a.72.72,0,0,1,.68,1.15l-8.79,18a.89.89,0,0,1-.81.48h-.24a.9.9,0,0,1-.82-.48Z"/><path class="cls-1" d="M160.82,41.37a8.8,8.8,0,0,1,9,8.93,11.2,11.2,0,0,1-.1,1.29.93.93,0,0,1-.91.82H156.5a4.59,4.59,0,0,0,4.61,4.18,6.74,6.74,0,0,0,3.75-1.2c.48-.29.91-.39,1.24,0l2,2.25a.79.79,0,0,1,0,1.25,10.31,10.31,0,0,1-7.15,2.64A9.79,9.79,0,0,1,151,51.45,9.84,9.84,0,0,1,160.82,41.37Zm3.36,7.68a3.57,3.57,0,0,0-3.5-3.26,3.8,3.8,0,0,0-3.75,3.26Z"/><path class="cls-1" d="M189.62,27a18.2,18.2,0,0,1,11.72,4.46.94.94,0,0,1,0,1.35l-3,3.12a.83.83,0,0,1-1.25,0,10.86,10.86,0,0,0-7.25-2.79A11.07,11.07,0,0,0,190,55.24a14.88,14.88,0,0,0,5.71-1.2V50h-3.84a.87.87,0,0,1-.91-.86V45.31a.89.89,0,0,1,.91-.92h9.22a.91.91,0,0,1,.86.92V57.59a.92.92,0,0,1-.38.77,24.24,24.24,0,0,1-11.91,3.12,17.26,17.26,0,0,1,0-34.51Z"/><path class="cls-1" d="M213.34,48.91a12.47,12.47,0,0,1,3.5.52c0-2.44-.72-3.31-2.5-3.31a23.42,23.42,0,0,0-5.37.72c-.67.19-1-.24-1.11-.86l-.43-2.5a1,1,0,0,1,.67-1.2,26,26,0,0,1,6.53-.91c6,0,7.39,3.12,7.39,8.35V60.14a.94.94,0,0,1-.91.91h-1.73c-.33,0-.57-.14-.81-.67l-.58-1.3a8.23,8.23,0,0,1-5.85,2.45c-3.84,0-6.48-2.5-6.48-6.58C205.66,51.55,208.44,48.91,213.34,48.91Zm.09,8.54a4.42,4.42,0,0,0,3.31-1.87V52.94a7.42,7.42,0,0,0-2.68-.58c-1.88,0-3.12,1.06-3.12,2.59A2.39,2.39,0,0,0,213.43,57.45Z"/><path class="cls-1" d="M233.45,74.54c0,.58-.29.91-1.15.91h-3.84a.94.94,0,0,1-.92-.91V42.76a.91.91,0,0,1,.92-.91h1.87a.85.85,0,0,1,.81.58l.63,1.58A8.3,8.3,0,0,1,238,41.37c5.28,0,9.26,4.56,9.26,10.08a9.79,9.79,0,0,1-9.5,10.08,9.63,9.63,0,0,1-4.27-1.05ZM237,56.35a4.72,4.72,0,0,0,4.66-4.9,4.6,4.6,0,0,0-4.47-4.9,4.13,4.13,0,0,0-3.93,2.93v5.76A6.16,6.16,0,0,0,237,56.35Z"/><path class="cls-1" d="M36.19,27.22H1.81A1.81,1.81,0,0,0,0,29V56.2a1.71,1.71,0,0,0,.15.71A1.92,1.92,0,0,0,1,58L17.87,68.57a2,2,0,0,0,2.09,0L36.84,58a2.1,2.1,0,0,0,.49-.44A1.78,1.78,0,0,0,38,56.2V29A1.81,1.81,0,0,0,36.19,27.22ZM25.7,55.39a.61.61,0,0,1-.57.54h-.75L15.44,44h0L14.06,55.06a.67.67,0,0,1-.6.57H9.77a.48.48,0,0,1-.45-.51l2.82-20.25a.64.64,0,0,1,.6-.54h.66l8.94,11.58h0L23.81,35.2a.61.61,0,0,1,.57-.57H28a.48.48,0,0,1,.48.51Z"/><path class="cls-1" d="M1.08.38A.39.39,0,0,1,1.46,0H3.68a.39.39,0,0,1,.38.38v5.8A4,4,0,0,1,5.72,5.8a3.84,3.84,0,0,1,4,4.2,4.05,4.05,0,0,1-4,4.2,3.46,3.46,0,0,1-2.68-1.26l-.24.66c-.08.22-.22.4-.42.4H1.46a.39.39,0,0,1-.38-.38ZM5.34,11.62A1.61,1.61,0,0,0,7,10a1.58,1.58,0,0,0-1.62-1.6A1.57,1.57,0,0,0,3.74,10,1.59,1.59,0,0,0,5.34,11.62Z"/><path class="cls-1" d="M11.1,6.38A.38.38,0,0,1,11.48,6h2.14a.38.38,0,0,1,.38.38v3.7a1.37,1.37,0,0,0,1.28,1.54,1.31,1.31,0,0,0,1.2-1.42V6.38c0-.32.22-.38.42-.38h2a.38.38,0,0,1,.38.38v7.24a.39.39,0,0,1-.38.38H18a.44.44,0,0,1-.38-.28l-.3-.74a3.4,3.4,0,0,1-2.7,1.22c-2.38,0-3.52-1.92-3.52-4.2Z"/><path class="cls-1" d="M21.36,2A1.59,1.59,0,0,1,22.94.4,1.6,1.6,0,0,1,24.54,2a1.59,1.59,0,0,1-1.6,1.58A1.57,1.57,0,0,1,21.36,2Zm.12,4.38A.38.38,0,0,1,21.86,6h2.2a.38.38,0,0,1,.38.38v7.24a.39.39,0,0,1-.38.38h-2.2a.39.39,0,0,1-.38-.38Z"/><path class="cls-1" d="M26.6.38A.39.39,0,0,1,27,0h2.2a.39.39,0,0,1,.38.38V13.62a.39.39,0,0,1-.38.38H27a.39.39,0,0,1-.38-.38Z"/><path class="cls-1" d="M32,8.54h-.52a.38.38,0,0,1-.36-.38V6.38A.36.36,0,0,1,31.52,6H32V3.78a.39.39,0,0,1,.38-.38h2.14a.38.38,0,0,1,.36.38V6H36.4a.37.37,0,0,1,.38.38V8.16a.38.38,0,0,1-.38.38H34.92V11c0,.44.3.48.54.48a3.9,3.9,0,0,0,.78-.14.35.35,0,0,1,.44.26l.44,1.66a.4.4,0,0,1-.26.46,10.3,10.3,0,0,1-2.42.44c-1.52,0-2.4-1-2.4-2.78Z"/><path class="cls-1" d="M42.14,6.5A.36.36,0,0,1,42.5,6h1.9a.42.42,0,0,1,.36.24L45.8,9h0l1.9-3A.37.37,0,0,1,48,5.8h.2a.35.35,0,0,1,.3.16l1.92,3h0l1-2.74A.36.36,0,0,1,51.9,6h1.86a.36.36,0,0,1,.36.5L51.46,14a.4.4,0,0,1-.36.24H51A.45.45,0,0,1,50.7,14l-2.58-4h0l-2.54,4a.49.49,0,0,1-.32.16h-.1c-.12,0-.32-.1-.34-.24Z"/><path class="cls-1" d="M55.28,2A1.59,1.59,0,0,1,56.86.4,1.6,1.6,0,0,1,58.46,2a1.59,1.59,0,0,1-1.6,1.58A1.57,1.57,0,0,1,55.28,2Zm.12,4.38A.38.38,0,0,1,55.78,6H58a.38.38,0,0,1,.38.38v7.24A.39.39,0,0,1,58,14h-2.2a.39.39,0,0,1-.38-.38Z"/><path class="cls-1" d="M60.84,8.54h-.52A.38.38,0,0,1,60,8.16V6.38A.36.36,0,0,1,60.32,6h.52V3.78a.39.39,0,0,1,.38-.38h2.14a.38.38,0,0,1,.36.38V6H65.2a.37.37,0,0,1,.38.38V8.16a.38.38,0,0,1-.38.38H63.72V11c0,.44.3.48.54.48a3.9,3.9,0,0,0,.78-.14.35.35,0,0,1,.44.26l.44,1.66a.4.4,0,0,1-.26.46,10.3,10.3,0,0,1-2.42.44c-1.52,0-2.4-1-2.4-2.78Z"/><path class="cls-1" d="M67.4.38A.39.39,0,0,1,67.78,0H70a.39.39,0,0,1,.38.38V6.26a4.25,4.25,0,0,1,1.86-.46c2.52,0,3.82,2,3.82,4.2v3.62a.39.39,0,0,1-.38.38H73.56a.38.38,0,0,1-.38-.38V10a1.47,1.47,0,0,0-1.46-1.58c-.64,0-1.34.36-1.34,1.58v3.66c0,.26-.1.38-.44.38H67.78a.39.39,0,0,1-.38-.38Z"/></g></g></svg>
