<svg xmlns="http://www.w3.org/2000/svg" x="0px" y="0px" width="16px" height="16px" viewBox="0 0 14.62 15.89"><defs><style>.cls-1{fill:#fff;}</style></defs><title>Asset 4</title><g id="Layer_2" data-name="Layer 2"><g id="Layer_1-2" data-name="Layer 1"><path class="cls-1" d="M12.79,0c-.07,1.51-.1,5.47,0,8.62s.12,5.21.24,6.17c0,.41.19.55.55.6l1.08.17,0,.29c-.55,0-1.66-.1-2.71-.1-.86,0-2.06.07-2.78.1l.12-.29c1.42-.14,1.61-.22,1.63-1.1,0-2,0-3.77,0-5.33a29.55,29.55,0,0,0-4.78.29c-1.46,2.38-2.42,4.08-2.74,4.7-.62,1.18-.24,1.32,1.56,1.44l-.1.29c-.5,0-1.66-.1-2.42-.1-1.27,0-2,.1-2.38.1l0-.29c1.27-.14,1.66-.26,2.57-1.66,1.54-2.33,6.67-10.23,8-12.43A4.88,4.88,0,0,0,11,.79l0-.24A2.45,2.45,0,0,0,12.65,0ZM10.9,1.92c-1,1.63-2.3,3.43-4.42,7,1.15-.12,2.14-.17,4.37-.22C10.87,6.91,10.87,4.49,10.9,1.92Z"/></g></g></svg>
